<!-- Generated by IcoMoon.io -->
<svg version="1.1" xmlns="http://www.w3.org/2000/svg" width="512" height="512" viewBox="0 0 512 512">
<title></title>
<g id="icomoon-ignore">
</g>
<path fill="#FFF" d="M480 128h-128v-32c0-17.6-14.4-32-32-32h-128c-17.602 0-32 14.4-32 32v32h-128c-17.6 0-32 14.4-32 32v288c0 17.601 14.398 32 32 32h448c17.6 0 32-14.399 32-32v-288c0-17.6-14.4-32-32-32zM192 96.058c0.017-0.020 0.037-0.041 0.057-0.058h127.886c0.021 0.017 0.041 0.038 0.059 0.058v31.942h-128.002v-31.942zM480 256h-64v48c0 8.801-7.2 16-16 16h-32c-8.802 0-16-7.199-16-16v-48h-192v48c0 8.801-7.2 16-16 16h-32c-8.801 0-16-7.199-16-16v-48h-64v-32h448v32z"></path>
</svg>
